REM DIRINDEX 1\2,1\3
REM DIRNAME cjc103,folder01,folder02
TITLE ""
FILE "Track51.mp3" MP3
  TRACK 01 AUDIO
    TITLE "2:cjc103_575"
    INDEX 01 00:00:00
  TRACK 02 AUDIO
    TITLE "0:"
    INDEX 01 00:12:46
  TRACK 03 AUDIO
    TITLE "3:cjc103_576"
    INDEX 01 00:14:43
  TRACK 04 AUDIO
    TITLE "0:"
    INDEX 01 00:15:52
  TRACK 05 AUDIO
    TITLE "3:cjc103_577"
    INDEX 01 00:17:29
  TRACK 06 AUDIO
    TITLE "0:"
    INDEX 01 00:18:56
